<?xml version="1.0" ?><svg data-name="Layer 1" id="Layer_1" viewBox="0 0 272 272" xmlns="http://www.w3.org/2000/svg"><defs><style>.cls-1{fill:#fff176;}.cls-2{fill:#ffeb3c;}.cls-3{fill:#4fc2f8;}.cls-4{fill:#03a9f5;}</style></defs><title/><path class="cls-1" d="M264,240H144.53q-2.75-28-5.74-56-1.38-13.25-2.79-26.48-1.41,13.25-2.79,26.48-3,28-5.74,56H8q.24-28,1.93-56,1.89-32,5.49-64,2.76-24.84,6.41-49.65Q22.88,63.17,24,56H246.93q1.21,7.56,2.36,15.13Q253,95.55,255.87,120q3.73,32,5.87,64Q263.57,212,264,240Z"/><rect class="cls-2" height="40" rx="5" ry="5" width="230.92" x="20.54" y="32"/><path class="cls-3" d="M261.74,184h-123q-1.38-13.25-2.79-26.48-1.41,13.25-2.79,26.48H9.93q1.89-32,5.49-64H255.87Q259.6,152,261.74,184Z"/><path class="cls-2" d="M9.93,184H133.21q-3,28-5.74,56H8Q8.24,212,9.93,184Z"/><path class="cls-2" d="M264,240H144.53q-2.75-28-5.74-56h123Q263.57,212,264,240Z"/><path class="cls-4" d="M109.27,110.33l7.15.88a103.56,103.56,0,0,1,27.74-57.68l-6.44-6A111.56,111.56,0,0,0,109.27,110.33Z"/><path class="cls-4" d="M168.15,110.33l-7.15.88a103.56,103.56,0,0,0-27.74-57.68l6.44-6A111.56,111.56,0,0,1,168.15,110.33Z"/></svg>